<svg width="64" height="64" fill="none" xmlns="http://www.w3.org/2000/svg"><path d="M56.625 6c-1.376 0-2.494 1.057-2.494 2.36v3.085h-2.634l-.054-1.35-.01-.179c.075-.208-.022-.368-.259-.434-.3-.311-.817-.519-1.408-.519-.495 0-.946.15-1.247.377-.312-.226-.753-.377-1.247-.377-.613 0-1.15.226-1.441.557-.29-.33-.828-.557-1.44-.557-.613 0-1.151.226-1.441.557-.29-.33-.828-.557-1.44-.557-.743 0-1.366.32-1.592.764-.14.085-.215.236-.215.453l.054 1.255h-3.28V8.472c0-1.302-1.117-2.359-2.493-2.359-1.377 0-2.495 1.057-2.495 2.36a1.905 1.905 0 0 0-1.279-.491c-1.021 0-1.85.783-1.85 1.745v2.803c-.031 0-.053-.01-.085-.01-.602 0-1.097.444-1.097.991v.755c0 .547.495.99 1.097.99.032 0 .054-.008.086-.008v2.963c0 .962.828 1.745 1.849 1.745.494 0 .946-.189 1.28-.49v.49c0 1.302 1.118 2.369 2.494 2.369 1.376 0 2.494-1.057 2.494-2.369v-4.53h4.096c.473 2.917.688 6.266-1.075 6.625-4.236 8.7-.936 19.373-5.204 16.155-6.343-6.068-20.77-2.576-20.77-2.576C7.203 30.76 2.709 33.96.624 34.422c-.42.094-.624.274-.624.642V55.02c0 .368.312.642.731.642 10.611.283 13.987 6.124 35.543 1.49 5.31-1.141 11.127-.735 14.04-.64 1.043 0 1.87-.643 2.075-1.567.839-3.039 2.71-6.341 2.71-12.786 0-7.455-3.645-17.26-3.645-23.61 0-1.18-.054-2.198-.15-3.123h2.859v4.416c0 1.302 1.118 2.359 2.494 2.359 1.376 0 2.494-1.057 2.494-2.36v-1.301c.108.868.882 1.538 1.828 1.538 1.021 0 1.838-.783 1.838-1.746V15.37c.033 0 .054.01.086.01.602 0 1.097-.444 1.097-.991v-.755c0-.547-.495-.99-1.097-.99-.032 0-.053.008-.086.008V9.85c0-.963-.827-1.746-1.838-1.746-.946 0-1.72.68-1.828 1.548V8.35C59.12 7.057 58.001 6 56.625 6Z" fill="#00AF87"/></svg>