<svg width="64" height="64" fill="none" xmlns="http://www.w3.org/2000/svg"><path d="M31.99 60.699C33.547 60.226 64 43.16 64 20.333c0-4.957-1.817-9.129-5.462-12.505C55.054 4.613 50.806 3 45.818 3 39.203 3 34.601 5.85 32 11.548 29.398 5.85 24.796 3 18.183 3c-5 0-9.237 1.613-12.72 4.828C1.816 11.204 0 15.376 0 20.333-.021 43.161 30.43 60.226 31.99 60.7ZM7.87 30.333c0-.817.613-1.462 1.366-1.462l7.881.01 3.258-15.827c.14-.678.72-1.162 1.366-1.15.656.02 1.204.526 1.312 1.214L27.3 39.99l3.688-19.73c.119-.657.656-1.14 1.28-1.162.634-.033 1.193.408 1.365 1.043l2.527 9.484 12.409.01c.387-1.989 2.043-3.483 4.01-3.483 2.27 0 4.108 1.967 4.108 4.376 0 2.408-1.839 4.365-4.107 4.365-1.581 0-2.936-.967-3.624-2.354H35.129c-.613 0-1.15-.43-1.323-1.065l-1.258-4.742-4.032 21.57c-.129.677-.699 1.183-1.365 1.161-.656 0-1.215-.516-1.323-1.204L21.516 21l-1.978 9.634c-.13.667-.689 1.151-1.334 1.151H9.226c-.742 0-1.355-.656-1.355-1.452Z" fill="#00AF87"/></svg>