<svg width="64" height="64" fill="none" xmlns="http://www.w3.org/2000/svg"><path d="M8.06 18.176H.859c-.478 0-.858-.342-.858-.761v-1.643c0-.42.38-.761.858-.761h7.154l-1.52-1.669c-.283-.308-.244-.761.087-1.035l1.267-1.035a.893.893 0 0 1 .634-.197.905.905 0 0 1 .604.257l5.166 5.27c.303.308.273.761-.048 1.044l-5.166 4.448a.905.905 0 0 1-.595.214h-.02a.932.932 0 0 1-.604-.24L6.55 20.88a.687.687 0 0 1-.039-.992l1.55-1.711Zm55.092-3.157h-7.155l1.52-1.668c.284-.308.245-.762-.087-1.035l-1.267-1.036a.908.908 0 0 0-.633-.196.904.904 0 0 0-.605.256l-5.166 5.27c-.302.308-.273.762.049 1.044l5.166 4.449c.156.137.37.214.595.214h.019a.931.931 0 0 0 .604-.24l1.267-1.189a.687.687 0 0 0 .04-.992l-1.56-1.711h7.203c.478 0 .858-.343.858-.762v-1.642c.01-.42-.38-.762-.848-.762ZM48.229 28.913c-1.004-2.062-2.047-4.184-2.74-6.39-1.646-5.245-.837-10.892 2.399-16.77a1.062 1.062 0 0 0-.059-1.146A1.506 1.506 0 0 0 46.64 4c-.448 0-.828.222-1.033.607-3.207 5.827-4.23 11.26-3.139 16.632.527 2.584 1.609 5.03 2.749 7.4H18.549c1.12-2.361 2.212-4.808 2.788-7.4 1.15-5.159.097-10.754-3.14-16.632A1.147 1.147 0 0 0 17.166 4c-.468 0-.936.24-1.19.607-.243.351-.263.77-.058 1.147 3.12 5.663 3.967 11.182 2.505 16.4-.682 2.456-1.842 4.817-2.963 7.101-.79 1.6-1.599 3.26-2.252 4.945-1.579 4.124-1.471 8.196.332 11.78.263.531.575 1.044.877 1.54.38.616.77 1.258 1.063 1.934 1.14 2.618 1.705 5.706 1.705 9.453 0 .745.663 1.13 1.316 1.13.341 0 .653-.103.897-.282.273-.206.419-.505.419-.848 0-5.5-1.209-9.915-3.684-13.508-2.008-2.918-1.97-6.896.126-11.824.069-.162.146-.325.225-.487 9.717 1.78 13.275 10.078 13.275 10.078h3.626c1.881-7.34 10.77-9.676 13.89-10.275.156.334.312.676.458 1.01 1.14 2.694 2.66 7.785-.049 11.55-3.031 4.208-3.538 9.401-3.645 13.448-.01.317.107.59.331.796.234.213.585.333.955.333.653 0 1.316-.385 1.336-1.129.136-5.279 1.199-9.128 3.42-12.482 2.867-4.32 1.424-9.762.673-11.9-.711-1.908-1.637-3.79-2.524-5.604Z" fill="#00AF87"/></svg>