<svg width="64" height="64" fill="none" xmlns="http://www.w3.org/2000/svg"><path d="M16.008 15.758c-1.21 3.205-4.177 5.05-6.638 4.098-2.46-.943-3.472-4.296-2.272-7.511 1.2-3.205 4.177-5.04 6.638-4.098 2.46.943 3.473 4.306 2.272 7.511Zm14.546 39.46c.02-.02.04-.11.059-.12-4.127-2.45-15.518-10.457-15.518-20.617 0-2.63.963-4.842 2.897-6.628 1.846-1.707 4.098-2.56 6.738-2.56 2.43 0 4.345.724 5.754 2.183.01-.03.03-.05.04-.07-7.283-12.61-19.487-2.698-19.487-2.698C7.357 29.034.967 12.355.967 12.355c-1.161-2.342-.814.357-.814.357-2.41 30.47 24.368 40.63 30.4 42.505ZM55.15 19.765c2.371-1.15 3.095-4.583 1.627-7.679-1.479-3.096-4.594-4.663-6.965-3.512-2.372 1.15-3.096 4.574-1.617 7.67 1.468 3.095 4.583 4.672 6.955 3.521Zm8.721-6.935s.347-2.699-.814-.357c0 0-6.131 15.815-10.07 12.353 0 0-12.184-9.893-19.457 2.659l.03.06c1.409-1.499 3.353-2.243 5.814-2.243 2.65 0 4.892.853 6.737 2.56 1.935 1.786 2.897 3.998 2.897 6.627 0 10.458-12.045 18.624-15.855 20.807.02.03.05.06.07.099 5.466-1.39 32.88-9.962 30.648-42.565ZM43.958 36.068c0-1.845-.675-3.393-2.034-4.653-1.3-1.2-2.877-1.796-4.733-1.796-2.46 0-4.167 1.061-5.14 3.175-.962-2.123-2.678-3.175-5.139-3.175-1.855 0-3.433.595-4.732 1.796-1.36 1.25-2.034 2.808-2.034 4.653 0 8.483 11.32 14.833 11.896 15.012.595-.189 11.916-6.529 11.916-15.012Z" fill="#00AF87"/></svg>