<svg width="120" height="120" viewBox="0 0 120 120" fill="none" xmlns="http://www.w3.org/2000/svg">
<path d="M60 0C26.8744 0.027981 0.027907 26.9457 0 60.1591C3.29302 139.961 116.707 139.933 120 60.1591C119.972 26.9457 93.1256 0.027981 60 0ZM55.8139 35.368C55.8139 33.0456 57.6837 31.1708 60 31.1708C62.3163 31.1708 64.186 33.0456 64.186 35.368V68.9452C64.186 71.2676 62.3163 73.1423 60 73.1423C57.6837 73.1423 55.8139 71.2676 55.8139 68.9452V35.368ZM60 87.8044C57.5442 87.8044 55.5628 85.8177 55.5628 83.3554C55.5628 80.8931 57.5442 78.9064 60 78.9064C62.4558 78.9064 64.4372 80.8931 64.4372 83.3554C64.4372 85.8177 62.4558 87.8044 60 87.8044Z" fill="#999999"/>
</svg>
