<svg width="24" height="24" xmlns="http://www.w3.org/2000/svg"><path d="M11.997 7.998A4.01 4.01 0 0 0 7.995 12a4.01 4.01 0 0 0 4.002 4.002A4.01 4.01 0 0 0 15.998 12a4.01 4.01 0 0 0-4.001-4.002ZM23.999 12c0-1.657.015-3.3-.078-4.953-.093-1.922-.532-3.627-1.937-5.032C20.576.607 18.874.172 16.953.08 15.296-.014 13.653 0 12 0c-1.657 0-3.3-.015-4.953.078C5.125.172 3.42.61 2.015 2.015.607 3.423.172 5.125.08 7.047-.014 8.704 0 10.346 0 12c0 1.654-.015 3.3.078 4.953.093 1.922.531 3.627 1.936 5.032 1.408 1.408 3.11 1.843 5.032 1.936C8.704 24.014 10.346 24 12 24c1.657 0 3.299.015 4.953-.078 1.921-.093 3.626-.531 5.031-1.936 1.408-1.408 1.843-3.11 1.937-5.032.096-1.654.078-3.296.078-4.953Zm-12.002 6.157A6.148 6.148 0 0 1 5.84 12a6.148 6.148 0 0 1 6.157-6.157A6.148 6.148 0 0 1 18.154 12a6.148 6.148 0 0 1-6.157 6.157ZM18.406 7.03a1.436 1.436 0 0 1-1.438-1.438c0-.796.642-1.438 1.438-1.438a1.436 1.436 0 0 1 1.329 1.988 1.436 1.436 0 0 1-1.329.888Z"/></svg>