<svg width="74" height="66" fill="none" xmlns="http://www.w3.org/2000/svg"><g clip-path="url(#a)"><path d="M5.19 53.662a.52.52 0 1 1 1.039 0v11.419a.52.52 0 1 1-1.039 0V53.662Z" fill="#fff"/><path d="M11.938 53.143a.52.52 0 0 1 0 1.038H.519a.52.52 0 0 1 0-1.038h11.419ZM21.8 65.08a.52.52 0 1 1-1.038 0V53.663a.519.519 0 1 1 1.038 0v11.419ZM43.6 65.067c0 .294-.269.533-.6.533-.331 0-.6-.239-.6-.533V53.333c0-.294.269-.533.6-.533.331 0 .6.239.6.533v11.734ZM33.219 65.08a.52.52 0 1 1-1.038 0V53.663a.52.52 0 1 1 1.038 0v11.419ZM64.361 65.08a.52.52 0 1 1-1.038 0V53.663a.519.519 0 1 1 1.038 0v11.419Z" fill="#fff"/><path d="M63.842 65.6a.519.519 0 0 1 0-1.038h9.343a.519.519 0 1 1 0 1.038h-9.343ZM27.38 59.027a.519.519 0 1 1-.735.734l-5.717-5.718a.519.519 0 1 1 .734-.734l5.717 5.718Z" fill="#fff"/><path d="M26.718 58.966a.519.519 0 1 0 .735.734l5.591-5.592a.519.519 0 1 0-.734-.734l-5.592 5.592Z" fill="#fff"/><path fill-rule="evenodd" clip-rule="evenodd" d="M42.613 53.143c0-.258.21-.467.467-.467h4.672a4.62 4.62 0 1 1 0 9.239H43.28a.467.467 0 0 1 0-.935h4.472a3.685 3.685 0 1 0 0-7.37H43.08a.467.467 0 0 1-.467-.467ZM36.852 10.38l-18.43 31.922h36.86l-18.43-31.921Zm0 2.077L20.22 41.264h33.264L36.852 12.457Z" fill="#fff"/><path fill-rule="evenodd" clip-rule="evenodd" d="M30.472 1.013 31.078 0l.605 1.013 5.688 9.512-.606 1.013-5.687-9.512L14.274 30.13h11.375l-.606 1.012H12.457l.605-1.012 17.41-29.117Z" fill="#fff"/><path fill-rule="evenodd" clip-rule="evenodd" d="M43.232 1.013 42.626 0l-.606 1.013-5.687 9.512.605 1.013 5.688-9.512L59.43 30.13H48.055l.606 1.012h12.585l-.605-1.012-17.41-29.117Z" fill="#fff"/><path fill-rule="evenodd" clip-rule="evenodd" d="M36.852 10.38 24.914 31.143H48.79L36.852 10.381Zm0 2.215-10.028 17.44H46.88l-10.028-17.44Z" fill="#67D29E"/></g><defs><clipPath id="a"><path fill="#fff" d="M0 0h74v65.6H0z"/></clipPath></defs></svg>