<svg width="182" height="25" fill="none" xmlns="http://www.w3.org/2000/svg"><path d="M4.625 21.879a.75.75 0 0 0-.806-1.265l.806 1.265Zm6.017-5.173a.75.75 0 0 0 .689 1.332l-.689-1.332Zm7.704-1.966a.75.75 0 0 0-.59-1.38l.59 1.38Zm6.725-4.247a.75.75 0 0 0 .506 1.412l-.506-1.412Zm7.867-1.003a.75.75 0 0 0-.43-1.437l.43 1.437Zm7.136-3.505a.75.75 0 1 0 .361 1.456l-.361-1.456Zm7.94-.247a.75.75 0 1 0-.297-1.47l.297 1.47Zm7.417-2.863a.75.75 0 1 0 .236 1.482l-.236-1.482Zm7.928.407a.75.75 0 0 0-.179-1.489l.179 1.49Zm7.623-2.279a.75.75 0 0 0 .124 1.495l-.123-1.495Zm7.88.994A.75.75 0 0 0 78.79.5l.07 1.498ZM86.61.267a.75.75 0 0 0 .019 1.5l-.019-1.5Zm7.8 1.535a.75.75 0 0 0 .03-1.5l-.03 1.5ZM102.27.597a.75.75 0 1 0-.081 1.497l.081-1.497Zm7.682 2.04a.75.75 0 0 0 .129-1.494l-.129 1.495Zm7.908-.701a.75.75 0 1 0-.175 1.49l.175-1.49Zm7.533 2.517a.75.75 0 0 0 .221-1.484l-.221 1.484Zm7.941-.214a.75.75 0 1 0-.266 1.476l.266-1.476Zm7.369 2.969a.75.75 0 1 0 .31-1.468l-.31 1.468Zm7.942.259a.75.75 0 1 0-.353 1.458l.353-1.458Zm7.184 3.395a.75.75 0 0 0 .394-1.447l-.394 1.447Zm7.913.717a.75.75 0 1 0-.435 1.435l.435-1.435Zm6.979 3.797a.75.75 0 0 0 .476-1.423l-.476 1.423Zm7.861 1.157a.75.75 0 0 0-.514 1.41l.514-1.41ZM1.438 24.035a68.497 68.497 0 0 1 3.187-2.156l-.806-1.265a70.032 70.032 0 0 0-3.257 2.203l.876 1.218Zm9.893-5.997a107.585 107.585 0 0 1 7.015-3.299l-.59-1.378a109.138 109.138 0 0 0-7.114 3.345l.689 1.332Zm14.246-6.133a146.473 146.473 0 0 1 7.36-2.415l-.43-1.437c-2.572.77-5.052 1.586-7.436 2.44l.506 1.412Zm14.858-4.464a177.04 177.04 0 0 1 7.579-1.703l-.297-1.47a178.474 178.474 0 0 0-7.643 1.717l.361 1.456Zm15.232-3.084c2.51-.401 5.075-.76 7.692-1.075l-.179-1.489c-2.636.317-5.22.679-7.75 1.082l.237 1.482Zm15.439-1.859c2.542-.21 5.128-.378 7.755-.5l-.07-1.5c-2.645.125-5.249.294-7.808.505l.123 1.495Zm15.523-.73c2.559-.032 5.153-.021 7.78.034l.032-1.5a233.673 233.673 0 0 0-7.83-.034l.018 1.5Zm15.561.326c2.56.138 5.148.319 7.763.544l.129-1.495a245.04 245.04 0 0 0-7.811-.546l-.081 1.497Zm15.496 1.331c2.546.3 5.116.642 7.708 1.028l.221-1.484a254.181 254.181 0 0 0-7.754-1.033l-.175 1.49Zm15.383 2.29c2.526.455 5.072.952 7.635 1.493l.31-1.468a262.981 262.981 0 0 0-7.679-1.5l-.266 1.475Zm15.224 3.21c2.497.604 5.01 1.249 7.537 1.937l.394-1.447a271.536 271.536 0 0 0-7.578-1.948l-.353 1.458Zm15.015 4.09c2.459.745 4.931 1.532 7.414 2.361l.476-1.423a280.473 280.473 0 0 0-7.455-2.374l-.435 1.435Zm14.761 4.927c1.219.445 2.44.9 3.664 1.366l.534-1.402a288.794 288.794 0 0 0-3.684-1.373l-.514 1.41Z" fill="#00AF87"/></svg>