<svg width="74" height="66" viewBox="0 0 74 66" fill="none" xmlns="http://www.w3.org/2000/svg">
<g>
<path d="M5.19043 53.9892C5.19043 53.7006 5.42279 53.4668 5.70947 53.4668C5.99611 53.4668 6.22851 53.7006 6.22851 53.9892V65.4776C6.22851 65.7661 5.99611 66 5.70947 66C5.42279 66 5.19043 65.7661 5.19043 65.4776V53.9892Z" fill="white"/>
<path d="M11.938 53.4668C12.2246 53.4668 12.457 53.7006 12.457 53.9892C12.457 54.2777 12.2246 54.5115 11.938 54.5115H0.519041C0.232383 54.5115 -1.252e-08 54.2777 0 53.9892C1.252e-08 53.7006 0.232383 53.4668 0.519041 53.4668H11.938Z" fill="white"/>
<path d="M21.7998 65.4776C21.7998 65.7661 21.5674 66 21.2808 66C20.9941 66 20.7617 65.7661 20.7617 65.4776V53.9892C20.7617 53.7006 20.9941 53.4668 21.2808 53.4668C21.5674 53.4668 21.7998 53.7006 21.7998 53.9892V65.4776Z" fill="white"/>
<path d="M43.5999 65.4637C43.5999 65.7599 43.3311 66.0001 42.9999 66.0001C42.6687 66.0001 42.3999 65.7599 42.3999 65.4637V53.6585C42.3999 53.3623 42.6687 53.1221 42.9999 53.1221C43.3311 53.1221 43.5999 53.3623 43.5999 53.6585V65.4637Z" fill="white"/>
<path d="M33.2188 65.4776C33.2188 65.7661 32.9864 66 32.6997 66C32.4131 66 32.1807 65.7661 32.1807 65.4776V53.9892C32.1807 53.7006 32.4131 53.4668 32.6997 53.4668C32.9864 53.4668 33.2188 53.7006 33.2188 53.9892V65.4776Z" fill="white"/>
<path d="M64.3612 65.4776C64.3612 65.7661 64.1288 66 63.842 66C63.5556 66 63.3232 65.7661 63.3232 65.4776V53.9892C63.3232 53.7006 63.5556 53.4668 63.842 53.4668C64.1288 53.4668 64.3612 53.7006 64.3612 53.9892V65.4776Z" fill="white"/>
<path d="M63.842 65.9999C63.5556 65.9999 63.3232 65.7661 63.3232 65.4775C63.3232 65.1894 63.5556 64.9556 63.842 64.9556H73.1848C73.4716 64.9556 73.704 65.1894 73.704 65.4775C73.704 65.7661 73.4716 65.9999 73.1848 65.9999H63.842Z" fill="white"/>
<path d="M27.3794 59.3867C27.5821 59.5907 27.5821 59.9211 27.3794 60.1252C27.1767 60.3292 26.8481 60.3292 26.6454 60.1252L20.9279 54.3727C20.7252 54.1687 20.7252 53.8383 20.9279 53.6342C21.1306 53.4302 21.4592 53.4302 21.6619 53.6342L27.3794 59.3867Z" fill="white"/>
<path d="M26.7184 59.3255C26.5157 59.5291 26.5157 59.8599 26.7184 60.0639C26.9211 60.268 27.2498 60.268 27.4525 60.0639L33.0442 54.4378C33.2469 54.2342 33.2469 53.9034 33.0442 53.6994C32.8415 53.4957 32.5129 53.4957 32.3102 53.6994L26.7184 59.3255Z" fill="white"/>
<path fill-rule="evenodd" clip-rule="evenodd" d="M42.6133 53.4674C42.6133 53.2078 42.8225 52.9973 43.0805 52.9973H47.7521C50.3033 52.9973 52.3713 55.0779 52.3713 57.6447C52.3713 60.2118 50.3033 62.2924 47.7521 62.2924H43.2801C43.0221 62.2924 42.8129 62.082 42.8129 61.8224C42.8129 61.5628 43.0221 61.3523 43.2801 61.3523H47.7521C49.7873 61.3523 51.4373 59.6927 51.4373 57.6447C51.4373 55.5971 49.7873 53.937 47.7521 53.937H43.0805C42.8225 53.937 42.6133 53.7269 42.6133 53.4674Z" fill="white"/>
<path fill-rule="evenodd" clip-rule="evenodd" d="M36.852 10.4441L18.4224 42.5599H55.2816L36.852 10.4441ZM36.852 12.5329L20.2204 41.5152H53.4836L36.852 12.5329Z" fill="white"/>
<path fill-rule="evenodd" clip-rule="evenodd" d="M30.4723 1.01894L31.0779 0L31.6834 1.01894L37.371 10.5891L36.7654 11.6081L31.0779 2.03788L14.2737 30.3134H25.6488L25.0433 31.3324H13.6681H12.457L13.0626 30.3134L30.4723 1.01894Z" fill="white"/>
<path fill-rule="evenodd" clip-rule="evenodd" d="M43.2317 1.01894L42.6261 0L42.0205 1.01894L36.333 10.5891L36.9386 11.6081L42.6261 2.03788L59.4305 30.3134H48.0553L48.6609 31.3324H60.0357H61.2469L60.6413 30.3134L43.2317 1.01894Z" fill="white"/>
<path fill-rule="evenodd" clip-rule="evenodd" d="M36.852 10.4441L24.9141 31.3324H48.7901L36.852 10.4441ZM36.852 12.6722L26.8241 30.2183H46.8801L36.852 12.6722Z" fill="#67D29E"/>
</g>
</svg>
