<svg width="49" height="64" xmlns="http://www.w3.org/2000/svg"><path fill-rule="evenodd" clip-rule="evenodd" d="M8.44.21c-.23.12-.53.38-.66.6-.31.5-2.41 6.87-2.68 8.13-.3 1.38-.3 4.14 0 5.53.32 1.52.68 2.5 1.67 4.53 1.2 2.44 1.33 2.98 1.33 5.31 0 1.69-.04 2-.35 3a12.9 12.9 0 0 1-2.67 4.7c-2.68 3.2-4.02 5.84-4.8 9.49C.05 42.6 0 43.2 0 45.25c0 2.73.18 3.93.98 6.33.64 1.91 1.22 2.97 4.22 7.64 2.38 3.71 2.82 4.32 3.23 4.54.47.23.81.24 12.12.24 11.41 0 11.64 0 12.13-.25.32-.17.58-.43.76-.78.24-.48.26-.65.19-1.82a19.5 19.5 0 0 0-.83-4.45c-.14-.4-.25-.8-.25-.88 0-.08.4-.24.9-.37a20.57 20.57 0 0 0 14.6-14.76 20.55 20.55 0 0 0-10.28-23.2l-1.22-.63.2-.46a7.33 7.33 0 0 0-1.51-8.21c-1.1-1.09-1.85-1.5-4.46-2.39-3.47-1.18-6.08-2.64-8.17-4.58C21.18-.1 21.81 0 14.9 0 9.52 0 8.8.03 8.44.21Zm15.33 26.23a6.68 6.68 0 0 0-4.6 4.25c-.35.94-.48 3-.25 4.04.35 1.58 1.26 3.1 2.9 4.84 1.16 1.22 6.7 6.03 7.31 6.35.51.26 1.07.26 1.57 0 .62-.32 5.93-4.9 7.17-6.18a12.47 12.47 0 0 0 2.55-3.54c.53-1.16.67-2 .6-3.47a6.25 6.25 0 0 0-1.2-3.65 6.25 6.25 0 0 0-9.37-1.22l-.53.49-.53-.49a6.24 6.24 0 0 0-5.62-1.42Zm.46 3.8c-1.11.5-1.68 1.52-1.68 3 0 1.86 1.21 3.34 6.15 7.5l1.22 1.04 1.1-.92c3.7-3.09 5.09-4.52 5.85-6.03a3 3 0 0 0 .43-1.64c0-1.39-.53-2.37-1.54-2.87-1.68-.84-3.33.15-4.07 2.44-.08.25-.32.61-.53.81-.34.33-.47.37-1.17.37-1.15 0-1.4-.22-2.1-1.82-.77-1.76-2.25-2.53-3.66-1.89Z"/></svg>