<svg width="44" height="64" xmlns="http://www.w3.org/2000/svg"><path fill-rule="evenodd" clip-rule="evenodd" d="M4.87.17c-.7.28-.62.71.4 2.24a20.24 20.24 0 0 1 3.17 7.78c.22 1.07.28 2.14.28 4.38-.01 2.57-.07 3.22-.45 5.04-.66 3.16-1.53 5.52-3.7 10-2.15 4.46-2.87 6.3-3.6 9.17a34.55 34.55 0 0 0-.14 15.67c.74 3.17 2.74 8.05 3.73 9.13l.4.42H20.8v-6.7c0-3.7-.04-6.82-.1-6.96-.07-.2-.26-.1-.91.41-1.03.82-3.1 1.8-4.32 2.05-2.03.41-4.89.11-6.5-.69-.9-.44-1.1-.75-.83-1.31.16-.37.27-.42.7-.36.29.05.95.25 1.48.46.83.32 1.24.37 2.96.37 1.7 0 2.14-.06 2.9-.36 1.41-.56 2.8-1.53 4.13-2.92l1.23-1.26.7.73a13.4 13.4 0 0 0 5.94 3.43 7.96 7.96 0 0 0 6.21-1.28c.6-.43 1.23-.42 1.46 0 .29.55.05 1-.82 1.57-3.48 2.27-7.57 2.03-11.59-.67-.6-.4-1.11-.72-1.12-.7-.02.02 0 3.22.05 7.11l.07 7.08h15.77l.43-.5c1.11-1.33 3-5.9 3.74-9.05.83-3.57 1.06-8.26.58-11.94-.55-4.18-1.55-7.17-4.33-12.9-2.17-4.49-3.06-6.89-3.71-9.92-.38-1.79-.43-2.35-.43-5.28-.01-2.63.05-3.55.29-4.64a21 21 0 0 1 3.32-7.65C38.96.95 39 .85 38.66.4c-.22-.3-.52-.31-8.24-.36L22.41 0v6c0 6.56 0 6.56-.94 6.46-.78-.1-.81-.38-.82-6.65V0h-7.72C8.7.03 5.06.1 4.87.18Z"/></svg>