<svg width="64" height="64" fill="none" xmlns="http://www.w3.org/2000/svg"><path d="m4.242 39.9 5.945-5.806L29.807 54.2l-5.946 5.805c-5.558 5.41-14.447 5.318-19.865-.232-5.407-5.562-5.301-14.45.246-19.873ZM24.108 4.227 59.16 40.133a14.012 14.012 0 0 1 3.987 9.808 14.03 14.03 0 0 1-4.233 10.053c-5.559 5.422-14.448 5.317-19.866-.233L3.996 23.856c-5.418-5.55-5.313-14.44.234-19.861 5.57-5.422 14.46-5.306 19.878.232ZM9.6 11.65c.985 0 1.783-.802 1.783-1.78 0-.977-.798-1.78-1.783-1.78-.985 0-1.782.791-1.782 1.78.011.99.809 1.78 1.782 1.78Zm1.783 5.713c.985 0 1.782-.79 1.782-1.78 0-.977-.797-1.78-1.782-1.78-.986 0-1.783.803-1.783 1.78 0 .99.797 1.78 1.783 1.78Zm2.439 4.596c0-.977-.798-1.78-1.783-1.78-.985 0-1.782.803-1.782 1.78s.786 1.78 1.782 1.78c.986 0 1.783-.79 1.783-1.78Zm6.051-9.331c0 .977.798 1.78 1.783 1.78.985 0 1.782-.803 1.782-1.78s-.797-1.78-1.782-1.78-1.783.803-1.783 1.78Zm-3.612.14c.973 0 1.771-.803 1.771-1.78 0-.978-.798-1.78-1.77-1.78-.986 0-1.783.802-1.783 1.78 0 .988.797 1.78 1.782 1.78Zm2.44 4.595c0-.977-.798-1.78-1.783-1.78-.985 0-1.783.803-1.783 1.78 0 .978.798 1.78 1.783 1.78.985 0 1.782-.79 1.782-1.78ZM54.738 54.48a1.773 1.773 0 1 0-.293 3.537 1.79 1.79 0 0 0 1.923-1.629 1.791 1.791 0 0 0-1.63-1.908Zm-.563-6.725a1.78 1.78 0 0 0-1.923 1.617 1.778 1.778 0 0 0 3.541.303 1.778 1.778 0 0 0-1.618-1.92Zm-3.096-3.898a1.778 1.778 0 0 0 1.618 1.92 1.789 1.789 0 0 0 1.924-1.617 1.778 1.778 0 0 0-3.542-.303Zm-1.888 8.366a1.781 1.781 0 0 0-.305 3.548c.973.082 1.83-.64 1.923-1.617a1.782 1.782 0 0 0-1.618-1.931Zm-3.225-4.038a1.777 1.777 0 0 0 1.618 1.92c.974.081 1.842-.64 1.912-1.617a1.77 1.77 0 0 0-1.618-1.92 1.755 1.755 0 0 0-1.912 1.617Zm-3.072 2.85a1.782 1.782 0 0 0-.305 3.55 1.773 1.773 0 0 0 1.923-1.618 1.782 1.782 0 0 0-1.618-1.931ZM22.29 21.588l-.786.721a8.365 8.365 0 0 0-.34 12.042l6.86 7.051c3.32 3.42 8.866 3.572 12.373.337l.281-.255c3.507-3.235 3.718-8.715.48-12.217l-6.637-7.179c-3.236-3.514-8.713-3.735-12.231-.5ZM49.954.853c-3.53 0-7.071 1.327-9.804 3.991l-5.875 5.922 19.819 20.198 5.676-6.026c5.547-5.422 5.652-14.311.234-19.861C57.26 2.26 53.614.853 49.954.853Z" fill="#00AF87"/></svg>