<svg width="64" height="64" xmlns="http://www.w3.org/2000/svg"><path d="M59.515 36.12H64v15.26h-4.485v-1.21H13.752l11.68-6.51v2.769h1.637v-3.681l4.316-2.411v2.42h.823V39.87l3.334-1.865v8.454H37.2v-8.474h3.553v4.763h.833v-4.763h3.9v8.434h1.637v-8.434h3.9v4.763h.823v-4.763h3.552v8.474h1.657v-8.474h2.461v-1.866Zm-55.02-9.278h47.558V14.657h-2.64v8.474h-1.656v-8.474h-3.552v4.763h-.834v-4.763h-3.9v8.434h-1.637v-8.434h-3.9v4.763h-.833v-4.763H29.55v8.474h-1.657v-8.474h-3.334v4.763h-.833v-4.763h-4.317v8.434h-1.637v-8.434h-4.316v4.763h-.824v-4.763H9.03v8.474H7.372v-8.474H4.485V13H0v15.26h4.485v-1.418h.01Zm35.522.923 1.003 1.816-1.43.803-1.438-2.62h-4.465l.724 1.31-.724.407-.943-1.716h-4.058l3.671 6.687-1.448.814-4.069-7.412-2.917 1.627 2.292 4.168-.724.407-2.292-4.168-3.78 2.104 4.058 7.382-1.43.804-4.058-7.383-3.78 2.104 2.292 4.167-.724.407-2.292-4.167-3.146 1.756 4.069 7.412-1.45.814-4.067-7.412-2.68 1.498 5.855 10.657 39.888-22.256H40.017v-.01Z"/></svg>