<svg width="64" height="64" fill="none" xmlns="http://www.w3.org/2000/svg"><path d="M9.216 34.217c-1.467-.65-1.014-.926-2.206-1.26-1.683-.473-.295-.178-1.772-.257C-.787 53.918 17.112 63.705 17.585 64c.354-.453.699-.925 1.053-1.398 2.157-2.993 4.204-6.479 6.233-10.328 3.396 1.3 10.722 1.801 14.237 1.349 4.824-.601 9.777-2.994 14.896-7.532.01 0 .01-.01.02-.01.167-1.064.305-2.127.404-3.17.719-7.306 3.741-9.147 3.968-20.44.67-1.34.709-1.566.738-3.89h-.01l1.448-10.417c-.296-2.855-1.33-4.627-2.885-5.562a4.32 4.32 0 0 0-.522-.266c-.02-.01-.04-.03-.069-.03a3.278 3.278 0 0 0-.512-.207 6.656 6.656 0 0 0-.423-.108 1.758 1.758 0 0 0-.394-.088 6.298 6.298 0 0 0-.424-.07c-.088-.01-.197-.029-.295-.029a8.1 8.1 0 0 0-.985-.03A15.427 15.427 0 0 1 49.544.15c-.62-.335-1.427-.098-1.831.6-.01.01-.01.02-.01.03-.404.69-.167 1.635.551 2.028.188.099.375.197.562.286l-1.89.876a1.288 1.288 0 0 0-.611 1.694l.01.02c.157.354.462.59.807.689a1.282 1.282 0 0 0-.561 1.663l.01.02c.226.502.738.778 1.26.729a1.277 1.277 0 0 0-.217 1.388l.01.02c.296.64 1.044.915 1.674.62l.089-.04c-.306.335-.404.808-.207 1.202l.906 1.802v.03a1.18 1.18 0 0 0 1.417.875l.72-.147c.53 1.093.748 2.156 1.378 3.278-.01.01 0 .02 0 .02h.01c-4.795 8.113-13.194 13.006-11.53 18.747-1.053-2.58-7.384-5.888-12.868-5.849-4.411.03-8.675 2.56-9.807 4.027 0 0 0 .01-.01.01v-.01a1.956 1.956 0 0 0-.236.325c-1.467-1.3-2.875-1.999-5.11-2.225-2.058-.227-3.14.315-4.844 1.359Zm25.373-7.07a1.155 1.155 0 0 1-.335-.817c0-.305.118-.6.335-.817l6.32-6.36c.217-.217.503-.345.808-.345.305 0 .59.118.817.344.217.217.335.512.335.818 0 .305-.118.6-.335.817l-6.321 6.37a1.138 1.138 0 0 1-.817.335 1.204 1.204 0 0 1-.807-.345Zm-4.815-12.13c.63 0 1.152.522 1.152 1.162v9.373c0 .64-.512 1.162-1.152 1.162-.63 0-1.152-.522-1.152-1.162V16.18c0-.64.522-1.162 1.152-1.162Zm-11.126 4.037 6.4 6.449a1.17 1.17 0 0 1 0 1.634 1.164 1.164 0 0 1-.817.345c-.306 0-.591-.118-.808-.335l-6.4-6.449a1.153 1.153 0 0 1 .808-1.969c.315-.01.6.108.817.325Z" fill="#00AF87"/></svg>