<svg width="64" height="64" xmlns="http://www.w3.org/2000/svg"><path fill-rule="evenodd" clip-rule="evenodd" d="M11.33 41.46v16.06c0 1.55-.6 4.69.64 5.83 1.1 1 3.6.52 4.97.52h13.08V29.5c0-2.84-.22-5.77 0-8.6.09-.96.84-1.84 1.87-1.84 1.02 0 1.77.88 1.85 1.85.23 2.82.01 5.75.01 8.59v34.37h13.08c1.38 0 3.88.5 4.97-.52 1.23-1.15.64-4.28.64-5.83V41.46h7.6c1 0 2.29.22 3.1-.53.69-.65.63-1.6.63-2.46v-5.1c0-7.07 1.63-16.12-3.76-21.67-2.47-2.54-5.75-3.62-9.2-3.86-2.16-.15-4.48.42-6.47-.67a6.2 6.2 0 0 1-2.71-3.08c-.72-1.9-.19-3.98-2.9-3.98H27.9c-1.27 0-3.37-.4-4.48.34-1.1.73-.82 2.28-1.19 3.4a6.18 6.18 0 0 1-3.67 3.72c-1.8.65-3.97.14-5.86.27-3.82.26-7.35 1.83-9.8 4.85C.07 16.17 0 20.25 0 24.52v14.07c0 .85-.05 1.7.64 2.34.8.74 2.1.53 3.1.53h7.6Z"/></svg>